<svg xmlns="http://www.w3.org/2000/svg" viewBox="0 0 1600 520" role="img" aria-labelledby="title desc">
  <title id="title">forkoff</title>
  <desc id="desc">A dark header with the forkoff wordmark and a simple branching terminal logo.</desc>
  <defs>
    <radialGradient id="glow" cx="50%" cy="48%" r="70%">
      <stop offset="0%" stop-color="#10233a"/>
      <stop offset="48%" stop-color="#070c14"/>
      <stop offset="100%" stop-color="#02050a"/>
    </radialGradient>
    <linearGradient id="line" x1="0" y1="0" x2="1" y2="0">
      <stop offset="0%" stop-color="#8b5cf6"/>
      <stop offset="48%" stop-color="#22d3ee"/>
      <stop offset="100%" stop-color="#f59e0b"/>
    </linearGradient>
    <linearGradient id="panel" x1="0" y1="0" x2="1" y2="1">
      <stop offset="0%" stop-color="#111827"/>
      <stop offset="100%" stop-color="#030712"/>
    </linearGradient>
    <filter id="softGlow" x="-80%" y="-80%" width="260%" height="260%">
      <feGaussianBlur stdDeviation="10" result="blur"/>
      <feMerge>
        <feMergeNode in="blur"/>
        <feMergeNode in="SourceGraphic"/>
      </feMerge>
    </filter>
  </defs>
  <rect width="1600" height="520" rx="44" fill="url(#glow)"/>
  <g opacity="0.22" stroke="#334155" stroke-width="1">
    <path d="M100 90H1500M100 170H1500M100 250H1500M100 330H1500M100 410H1500"/>
    <path d="M160 60V460M280 60V460M400 60V460M520 60V460M640 60V460M760 60V460M880 60V460M1000 60V460M1120 60V460M1240 60V460M1360 60V460M1480 60V460"/>
  </g>
  <g transform="translate(154 116)">
    <rect x="0" y="48" width="300" height="192" rx="28" fill="url(#panel)" stroke="#5b6ee1" stroke-width="3"/>
    <circle cx="38" cy="86" r="10" fill="#fb7185"/>
    <circle cx="68" cy="86" r="10" fill="#fbbf24"/>
    <circle cx="98" cy="86" r="10" fill="#4ade80"/>
    <path d="M44 134h86M44 168h128M44 202h72" stroke="#64748b" stroke-width="16" stroke-linecap="round" opacity="0.65"/>
    <circle cx="358" cy="144" r="20" fill="#22d3ee" filter="url(#softGlow)"/>
    <path d="M300 144H358" stroke="#22d3ee" stroke-width="8" stroke-linecap="round" filter="url(#softGlow)"/>
    <path d="M378 144C450 144 450 76 522 76" stroke="url(#line)" stroke-width="8" fill="none" stroke-linecap="round" filter="url(#softGlow)"/>
    <path d="M378 144C450 144 450 212 522 212" stroke="url(#line)" stroke-width="8" fill="none" stroke-linecap="round" filter="url(#softGlow)"/>
    <rect x="522" y="24" width="164" height="104" rx="20" fill="url(#panel)" stroke="#22d3ee" stroke-width="3"/>
    <rect x="522" y="160" width="164" height="104" rx="20" fill="url(#panel)" stroke="#f59e0b" stroke-width="3"/>
    <path d="M552 68h74M552 94h48M552 204h82M552 230h52" stroke="#94a3b8" stroke-width="11" stroke-linecap="round" opacity="0.6"/>
  </g>
  <g transform="translate(905 166)">
    <text x="0" y="72" fill="#f8fafc" font-family="Inter, ui-sans-serif, system-ui, -apple-system, BlinkMacSystemFont, Segoe UI, sans-serif" font-size="116" font-weight="800" letter-spacing="-4">forkoff</text>
    <rect x="4" y="116" width="392" height="8" rx="4" fill="url(#line)" filter="url(#softGlow)"/>
  </g>
</svg>
